<?xml version="1.0" standalone="no"?>
<!DOCTYPE svg PUBLIC "-//W3C//DTD SVG 20010904//EN"
 "http://www.w3.org/TR/2001/REC-SVG-20010904/DTD/svg10.dtd">
<svg version="1.0" xmlns="http://www.w3.org/2000/svg"
 width="361.000000pt" height="364.000000pt" viewBox="0 0 361.000000 364.000000"
 preserveAspectRatio="xMidYMid meet">

<g transform="translate(0.000000,364.000000) scale(0.100000,-0.100000)"
fill="#000000" stroke="none">
<path d="M1535 3496 c-369 -61 -732 -269 -969 -555 -380 -459 -491 -1045 -306
-1611 50 -152 158 -360 229 -439 29 -34 27 -57 -19 -162 -45 -101 -48 -130 -9
-78 64 86 88 137 82 173 -4 28 -2 36 10 36 9 0 19 10 23 23 9 30 144 236 207
317 52 67 248 298 327 385 120 133 343 345 363 345 4 0 28 -9 52 -20 111 -50
283 -53 419 -6 78 27 79 27 97 7 18 -19 18 -20 0 -26 -11 -3 -33 -29 -50 -58
-17 -29 -60 -89 -96 -134 -37 -46 -64 -83 -62 -83 3 0 51 52 107 115 142 162
314 332 385 383 33 23 85 66 115 95 101 95 184 207 154 207 -19 0 -99 -70
-239 -207 -175 -173 -225 -206 -410 -274 -85 -32 -97 -33 -220 -33 -110 1
-139 4 -187 23 -57 22 -58 23 -41 44 9 12 54 54 100 92 46 39 136 124 201 190
212 217 256 255 298 255 62 0 264 62 391 121 186 85 383 250 422 352 6 15 15
27 20 27 13 0 124 -139 188 -236 65 -100 151 -278 191 -399 62 -189 91 -437
73 -639 -39 -426 -246 -836 -556 -1099 -207 -176 -389 -272 -635 -335 -313
-81 -675 -59 -970 58 -74 29 -211 98 -232 118 -10 8 -18 12 -18 8 0 -4 -6 -2
-12 4 -7 6 -50 37 -95 70 -97 72 -233 197 -252 234 -16 30 -26 33 -35 10 -12
-31 161 -196 319 -304 72 -50 98 -65 210 -120 250 -122 468 -168 755 -156 306
12 568 99 845 281 118 78 329 288 412 411 322 474 390 1043 187 1563 -204 523
-637 894 -1186 1016 -100 23 -472 29 -583 11z m406 -20 c103 -6 271 -41 382
-81 174 -63 393 -195 511 -306 l61 -58 -40 -1 c-70 0 -156 -28 -280 -90 -142
-71 -288 -178 -443 -325 -60 -58 -115 -105 -121 -105 -6 0 -11 -6 -11 -14 0
-19 -528 -536 -548 -536 -19 0 -283 -267 -436 -440 -191 -218 -306 -366 -391
-505 -43 -71 -80 -132 -82 -134 -7 -10 -48 40 -93 114 -224 371 -296 784 -210
1206 76 374 299 729 601 957 187 142 361 226 589 284 108 27 305 48 385 41 17
-1 73 -4 126 -7z m948 -465 c23 -14 -5 -67 -67 -128 -55 -56 -155 -133 -170
-133 -5 0 -17 -9 -26 -19 -24 -27 -268 -146 -347 -170 -96 -30 -199 -49 -199
-38 0 11 141 145 199 188 229 174 363 252 501 289 77 21 90 23 109 11z"/>
<path d="M1381 1335 c-185 -41 -385 -138 -576 -280 -123 -92 -274 -241 -226
-223 5 2 41 32 79 68 95 90 170 147 285 219 303 191 501 240 795 197 118 -18
189 -22 198 -13 4 4 -6 7 -22 7 -16 0 -80 9 -143 20 -132 23 -295 25 -390 5z"/>
</g>
</svg>
